<svg xmlns="http://www.w3.org/2000/svg" viewBox="0 0 841.9 595.3">
  <g fill="#61DAFB">
    <path d="M666.3 296.5c0-32.5-40.7-63.3-103.1-82.4 14.4-35.7 52.1-42.2 67.2-56.2-3.1-11.3-11.5-21.3-21.3-29.1-34.5-26.9-89.5-22.7-123.2-15.3-10.9-5.5-22.2-10.2-33.9-14.1C444.9 120.7 421.2 104 395.3 104c-25.9 0-49.6 16.7-71.1 25.9-11.7 4-23 8.6-33.9 14.1-33.8-7.3-88.8-11.5-123.2 15.3-9.8 7.9-18.2 17.9-21.3 29.1 15.1 14 52.8 20.5 67.2 56.2-62.4 19.1-103.1 49.9-103.1 82.4 0 32.5 40.7 63.3 103.1 82.4-14.4 35.7-52.1 42.2-67.2 56.2 3.1 11.3 11.5 21.3 21.3 29.1 34.5 26.9 89.5 22.7 123.2 15.3 10.9 5.5 22.2 10.2 33.9 14.1 21.5 9.2 45.2 25.9 71.1 25.9 25.9 0 49.6-16.7 71.1-25.9 11.7-4 23-8.6 33.9-14.1 33.8 7.3 88.8 11.5 123.2-15.3 9.8-7.9 18.2-17.9 21.3-29.1-15.1-14-52.8-20.5-67.2-56.2 62.4-19.1 103.1-49.9 103.1-82.4zM395.3 389.9c-51.1 0-92.7-41.6-92.7-92.7 0-51.1 41.6-92.7 92.7-92.7 51.1 0 92.7 41.6 92.7 92.7 0 51.1-41.6 92.7-92.7 92.7z"/>
  </g>
</svg>
